<?xml version="1.0" standalone="no"?>
<!DOCTYPE svg PUBLIC "-//W3C//DTD SVG 20010904//EN"
 "http://www.w3.org/TR/2001/REC-SVG-20010904/DTD/svg10.dtd">
<svg version="1.0" xmlns="http://www.w3.org/2000/svg"
 width="590.000000pt" height="547.000000pt" viewBox="0 0 590.000000 547.000000"
 preserveAspectRatio="xMidYMid meet">
<g transform="translate(0.000000,547.000000) scale(0.100000,-0.100000)"
fill="#000000" stroke="none">
<path d="M1874 4098 c-1098 -1100 -1074 -1073 -1126 -1218 l-23 -65 -3 -862
c-3 -968 -5 -943 69 -1093 80 -161 245 -287 424 -325 105 -22 3405 -22 3510 0
179 37 341 162 423 325 75 149 73 123 70 1088 l-3 857 -28 79 c-15 43 -47 108
-71 145 -31 47 -336 358 -1068 1089 l-1023 1022 -55 0 -55 0 -1041 -1042z
m2062 -220 c529 -530 970 -979 982 -998 53 -91 53 -79 50 -986 l-3 -839 -28
-60 c-37 -79 -114 -156 -191 -192 l-61 -28 -482 -3 -483 -3 0 703 c0 680 -1
704 -20 735 -39 65 -12 63 -730 63 -718 0 -691 2 -730 -63 -19 -31 -20 -55
-20 -735 l0 -703 -482 3 -483 3 -61 28 c-77 36 -154 113 -191 192 l-28 60 -3
839 c-3 907 -3 895 50 986 19 31 1935 1960 1948 1960 3 0 438 -433 966 -962z
m-466 -2483 l0 -625 -500 0 -500 0 0 625 0 625 500 0 500 0 0 -625z"/>
</g>
</svg>
