<?xml version="1.0" standalone="no"?>
<!DOCTYPE svg PUBLIC "-//W3C//DTD SVG 20010904//EN"
 "http://www.w3.org/TR/2001/REC-SVG-20010904/DTD/svg10.dtd">
<svg version="1.0" xmlns="http://www.w3.org/2000/svg"
 width="600.000000pt" height="340.000000pt" viewBox="0 0 600.000000 340.000000"
 preserveAspectRatio="xMidYMid meet">
<g transform="translate(0.000000,340.000000) scale(0.050000,-0.050000)"
fill="#000000" stroke="none">
<path d="M3412 5775 c-20 -31 -56 -341 -120 -1025 -50 -539 -119 -1277 -153
-1640 -34 -362 -66 -663 -70 -668 -20 -20 -35 35 -159 558 -175 742 -223 791
-408 425 -72 -144 -74 -145 -324 -145 -244 0 -245 -20 12 330 250 340 245 310
54 310 l-156 0 -229 -320 c-180 -252 -238 -320 -274 -320 -45 0 -45 1 -45 320
l0 320 -139 0 -140 0 -5 -315 -6 -315 -225 -6 -225 -5 0 -80 0 -79 230 0 230
0 0 -360 0 -360 140 0 140 0 0 191 0 191 112 139 c62 76 115 139 119 139 3 0
78 -148 166 -330 l161 -330 162 0 c90 0 160 7 157 15 -4 8 -86 170 -183 360
l-175 345 217 0 c240 0 243 1 335 153 24 40 48 64 55 54 9 -16 226 -928 294
-1237 57 -262 93 -317 178 -271 45 24 26 -142 194 1671 130 1404 135 1449 161
1423 16 -15 12 9 169 -1183 158 -1212 162 -1217 479 -620 l149 280 5 -495 6
-495 139 0 140 0 0 365 0 365 1000 -5 1000 -6 0 -359 0 -360 130 0 130 0 0
360 0 360 66 0 c63 0 296 -356 436 -665 23 -52 31 -55 161 -55 l137 0 0 360 0
360 1010 0 1010 0 0 -360 0 -360 490 0 490 0 0 130 0 130 -350 0 -350 0 0 189
0 190 295 5 295 6 6 124 6 125 -296 5 -296 6 -6 175 -6 175 340 0 c205 0 341
8 345 20 4 11 4 69 0 130 l-7 110 -478 0 -478 0 0 -320 0 -320 -1010 0 -1010
0 0 320 0 320 -130 0 -130 0 0 -321 0 -321 -92 6 -91 6 -174 310 -175 310
-134 6 -134 6 0 -321 0 -321 -928 0 c-760 0 -931 5 -950 27 -45 55 -122 360
-122 487 l0 126 -140 0 -140 0 0 -83 c0 -101 -357 -807 -391 -773 -3 3 -83
605 -178 1336 -182 1395 -186 1420 -250 1420 -22 0 -53 -20 -69 -45z m3968
-2730 l0 -75 -40 65 c-49 81 -49 85 0 85 33 0 40 -13 40 -75z"/>
<path d="M10108 4265 c-33 -52 -77 -120 -97 -150 l-36 -55 118 0 117 1 115
139 c141 170 143 160 -20 160 l-135 -1 -62 -94z"/>
</g>
</svg>
