<?xml version="1.0" standalone="no"?>
<!DOCTYPE svg PUBLIC "-//W3C//DTD SVG 20010904//EN"
 "http://www.w3.org/TR/2001/REC-SVG-20010904/DTD/svg10.dtd">
<svg version="1.0" xmlns="http://www.w3.org/2000/svg"
 width="1722.000000pt" height="1731.000000pt" viewBox="0 0 1722.000000 1731.000000"
 preserveAspectRatio="xMidYMid meet">
<g transform="translate(0.000000,1731.000000) scale(0.100000,-0.100000)"
fill="#000000" stroke="none">
<path d="M14644 13075 c-36 -11 -62 -24 -139 -72 -11 -7 -38 -22 -60 -34 -22
-12 -56 -33 -75 -48 -19 -15 -53 -36 -75 -47 -42 -21 -85 -49 -170 -109 -27
-20 -126 -87 -220 -150 -257 -174 -275 -186 -275 -196 0 -14 66 -11 123 6 77
23 145 42 212 61 33 9 75 22 93 30 18 8 41 14 52 14 11 0 34 6 52 14 18 7 60
21 93 31 177 51 336 104 351 116 6 5 33 21 60 35 69 36 128 83 155 122 50 74
10 207 -70 230 -46 14 -54 14 -107 -3z"/>
<path d="M9165 12792 c-13 -9 -85 -115 -85 -124 0 -3 -19 -39 -43 -80 -24 -40
-46 -80 -50 -88 -4 -8 -16 -28 -27 -45 -11 -16 -24 -39 -30 -50 -6 -11 -20
-36 -31 -55 -12 -19 -32 -55 -46 -80 -13 -25 -33 -58 -43 -75 -19 -31 -64
-111 -87 -156 -22 -43 -49 -61 -90 -60 -350 12 -484 11 -488 -1 -3 -8 2 -47
10 -88 20 -95 43 -346 51 -560 6 -163 6 -166 -19 -215 -14 -28 -31 -62 -36
-75 -11 -24 -27 -52 -44 -74 -14 -19 -77 -118 -77 -121 0 -2 -26 -48 -58 -102
-32 -54 -61 -105 -65 -113 -4 -8 -16 -28 -27 -45 -11 -16 -24 -39 -30 -50 -6
-11 -19 -33 -30 -50 -11 -16 -24 -39 -30 -50 -6 -11 -19 -33 -30 -50 -11 -16
-24 -39 -29 -50 -5 -11 -21 -37 -35 -58 -14 -21 -26 -40 -26 -42 0 -2 -26 -48
-58 -102 -32 -54 -61 -105 -65 -113 -4 -8 -16 -28 -27 -45 -11 -16 -24 -39
-30 -50 -6 -11 -19 -33 -29 -50 -11 -16 -32 -52 -47 -80 -48 -88 -55 -99 -72
-127 -65 -103 -136 -223 -165 -278 -24 -46 -39 -65 -53 -65 -16 0 -19 8 -22
50 -1 28 -9 79 -17 115 -8 36 -21 101 -29 145 -8 44 -20 107 -26 140 -7 33
-16 85 -20 115 -3 30 -12 84 -19 120 -12 61 -21 109 -52 270 -6 36 -18 97 -25
135 -8 39 -18 97 -23 129 -6 32 -14 80 -20 105 -10 44 -27 136 -51 266 -22
120 -40 272 -40 345 0 124 20 346 47 505 14 83 28 167 30 188 l5 37 -120 0
c-93 0 -122 3 -132 15 -6 8 -16 49 -21 92 -6 43 -14 94 -19 113 -6 19 -10 50
-10 68 0 19 -7 61 -15 95 -8 34 -17 73 -19 87 -9 46 -43 71 -89 68 -34 -2 -44
-8 -59 -34 -24 -42 -45 -123 -53 -209 -3 -38 -12 -99 -20 -135 -33 -155 -41
-209 -65 -420 -10 -91 -25 -192 -55 -385 -8 -49 -16 -106 -19 -125 -10 -88
-29 -211 -42 -278 -8 -40 -14 -91 -14 -115 0 -23 -6 -75 -14 -117 -8 -41 -22
-127 -30 -190 -8 -63 -22 -164 -31 -225 -8 -60 -15 -123 -15 -140 0 -16 -7
-75 -15 -130 -8 -55 -23 -152 -33 -215 -9 -63 -21 -114 -26 -113 -12 3 -99
256 -140 408 -8 28 -21 75 -30 105 -10 30 -21 73 -26 96 -5 22 -13 51 -18 65
-5 13 -17 51 -27 84 -9 33 -23 76 -30 95 -31 87 -37 107 -46 141 -19 79 -53
118 -104 118 -55 1 -71 -22 -151 -214 -7 -16 -27 -61 -44 -100 -18 -38 -38
-85 -46 -102 -8 -18 -20 -48 -28 -65 -8 -18 -24 -58 -36 -88 -12 -30 -29 -63
-38 -73 -15 -16 -103 -17 -1734 -17 -1867 1 -1756 4 -1787 -53 -16 -29 -9 -65
16 -95 18 -20 24 -20 1793 -27 l1775 -7 33 24 c36 25 61 68 112 193 18 44 44
105 58 135 14 30 28 68 32 85 11 54 60 42 60 -15 0 -23 15 -75 45 -160 7 -19
21 -62 30 -95 35 -120 48 -161 60 -195 7 -19 21 -62 30 -95 10 -33 23 -78 30
-100 7 -22 20 -67 30 -100 9 -33 23 -73 30 -90 8 -16 16 -41 19 -55 19 -94 90
-290 113 -316 43 -48 134 -17 148 50 25 130 35 199 35 241 1 28 7 86 15 130 8
44 15 97 15 117 0 20 4 49 10 63 5 14 13 59 16 98 3 40 12 110 19 157 8 47 21
141 30 210 8 69 22 175 30 235 7 61 21 166 30 235 9 69 23 155 31 191 7 37 14
82 14 100 0 19 6 67 14 109 8 41 22 127 31 190 8 63 22 156 30 205 7 50 19
123 24 163 12 79 26 116 42 107 5 -4 9 -16 9 -27 0 -12 6 -44 14 -72 19 -68
36 -140 46 -201 8 -53 22 -124 46 -240 8 -38 14 -81 14 -94 0 -14 6 -50 14
-80 8 -31 19 -87 26 -126 6 -38 18 -108 26 -155 9 -47 19 -110 24 -140 4 -30
13 -75 19 -100 15 -62 32 -154 42 -225 4 -33 13 -76 19 -95 5 -19 10 -48 10
-65 0 -16 6 -61 14 -100 20 -94 42 -211 60 -320 9 -49 21 -117 27 -150 6 -33
15 -84 19 -113 9 -54 23 -122 42 -202 6 -25 14 -74 18 -110 4 -36 12 -76 18
-90 6 -14 13 -38 17 -53 7 -35 58 -67 107 -67 33 0 41 6 76 53 38 50 57 84 98
172 11 22 25 44 32 48 6 4 12 15 12 24 0 8 14 32 30 53 17 21 30 40 30 43 0 3
19 38 43 79 24 40 47 80 51 88 8 17 19 36 57 95 14 22 29 47 32 55 4 8 16 29
27 45 11 17 24 39 30 50 6 11 19 34 29 50 11 17 32 53 47 80 49 89 55 100 74
130 11 17 24 39 30 50 6 11 19 34 30 50 11 17 24 39 30 50 13 24 27 46 63 102
15 24 27 45 27 47 0 3 33 60 74 128 67 113 89 151 157 276 33 60 120 206 161
270 9 15 29 50 43 77 14 28 35 64 45 80 11 17 23 37 27 45 3 8 18 33 32 55 14
22 47 83 74 135 27 52 54 102 61 110 7 8 23 35 35 60 12 25 31 59 42 75 10 17
23 39 29 50 6 11 19 34 30 50 11 17 23 37 27 45 4 8 19 33 34 55 14 22 41 67
59 100 18 33 39 67 46 76 8 8 14 18 14 21 0 4 26 51 58 105 31 54 68 118 80
143 13 25 39 72 58 105 18 33 38 70 44 83 16 38 42 22 78 -48 13 -25 32 -58
42 -75 10 -16 29 -50 41 -75 13 -25 35 -63 49 -85 14 -22 31 -49 38 -60 7 -11
17 -32 23 -47 6 -16 15 -28 20 -28 5 0 9 -6 9 -13 0 -7 12 -30 27 -52 14 -21
43 -71 64 -110 109 -208 131 -235 193 -235 33 0 87 54 115 116 13 27 31 65 42
84 11 19 32 61 47 92 16 34 33 58 43 58 15 0 48 -38 154 -175 22 -28 47 -58
55 -67 8 -8 29 -32 45 -53 56 -71 160 -194 230 -273 99 -111 119 -134 130
-153 6 -9 35 -44 65 -76 30 -33 73 -82 95 -109 97 -119 463 -465 590 -559 22
-17 57 -38 77 -49 20 -10 39 -25 42 -32 3 -8 10 -14 15 -14 5 0 45 -24 88 -53
125 -85 314 -187 346 -187 7 0 17 -4 23 -9 14 -14 146 -66 239 -94 153 -46
239 -65 400 -91 99 -16 507 -20 1792 -17 l692 1 21 22 c20 22 25 54 14 96 -15
54 24 52 -1131 52 -1165 1 -1339 7 -1508 52 -22 6 -60 15 -85 18 -25 4 -60 13
-77 19 -67 23 -99 33 -128 41 -57 16 -120 42 -180 72 -173 89 -232 121 -257
136 -74 47 -200 136 -239 170 -24 21 -64 53 -89 72 -25 18 -49 38 -55 45 -5 6
-37 31 -70 57 -115 87 -405 385 -537 551 -21 27 -62 76 -91 109 -82 96 -111
130 -147 178 -36 48 -147 178 -165 195 -6 6 -27 31 -47 58 -41 54 -115 139
-207 238 -73 79 -101 87 -158 43 -27 -20 -91 -105 -113 -149 -22 -44 -73 -103
-85 -99 -14 6 -56 57 -68 84 -4 8 -16 29 -27 45 -10 17 -31 53 -45 80 -14 28
-42 77 -60 110 -19 33 -38 67 -42 75 -4 8 -27 49 -51 90 -64 109 -123 216
-137 250 -7 17 -22 42 -49 83 -14 21 -26 27 -55 27 -20 0 -41 -4 -46 -8z"/>
<path d="M1924 11958 c41 -218 66 -706 66 -1255 0 -338 1 -353 19 -363 25 -13
450 -13 471 0 12 7 14 59 11 347 -5 548 21 1030 64 1223 9 36 15 68 15 73 0 4
-147 7 -326 7 l-326 0 6 -32z"/>
<path d="M4562 11888 c-150 -160 -1367 -1384 -1399 -1407 -21 -16 -133 -140
-133 -148 0 -5 57 -10 128 -12 100 -1 136 2 167 15 29 12 255 232 852 829 447
448 813 816 813 819 0 3 -75 6 -166 6 l-166 0 -96 -102z"/>
<path d="M11206 11981 c-3 -5 1 -58 9 -117 9 -60 22 -219 31 -354 26 -420 26
-425 60 -467 17 -20 60 -64 97 -96 53 -47 70 -57 80 -48 11 9 16 82 21 353 4
189 13 399 21 468 8 69 15 157 17 195 l3 70 -167 3 c-92 1 -169 -2 -172 -7z"/>
<path d="M12770 11976 c0 -8 5 -27 10 -41 6 -15 19 -104 31 -198 17 -149 21
-253 26 -777 4 -536 7 -606 21 -617 12 -10 79 -13 254 -13 182 0 240 3 243 13
2 6 6 321 8 698 3 496 8 691 16 707 l12 22 512 0 c830 0 1238 -33 1543 -125
12 -4 24 -3 27 2 9 14 -15 317 -25 331 -8 9 -289 12 -1344 12 -1152 0 -1334
-2 -1334 -14z"/>
<path d="M8870 11588 c-6 -13 -18 -36 -28 -53 -10 -16 -38 -66 -62 -110 -24
-44 -53 -96 -65 -115 -48 -77 -94 -181 -88 -198 8 -20 115 -151 328 -401 83
-97 172 -203 200 -236 27 -33 66 -78 87 -100 20 -22 69 -80 109 -130 67 -84
151 -182 227 -266 18 -20 45 -52 60 -71 71 -92 314 -388 368 -448 23 -26 72
-84 139 -166 22 -27 61 -71 86 -99 25 -27 76 -86 113 -130 38 -44 91 -107 120
-139 28 -33 74 -89 101 -125 28 -37 60 -78 72 -91 12 -14 54 -63 94 -110 40
-47 78 -90 83 -96 6 -6 29 -32 51 -59 22 -26 75 -88 118 -139 44 -50 86 -102
95 -116 24 -36 91 -118 129 -156 38 -39 77 -47 208 -42 l90 3 -4 1100 c-4
1235 5 1114 -84 1176 -26 19 -68 49 -93 67 -25 19 -47 32 -49 30 -2 -2 -5
-357 -7 -788 -3 -684 -5 -785 -18 -785 -8 0 -43 36 -78 80 -105 131 -181 223
-265 315 -13 14 -79 93 -146 175 -68 83 -129 155 -135 160 -6 6 -40 46 -76 90
-35 44 -91 112 -125 151 -62 73 -70 83 -226 273 -52 63 -139 169 -194 235 -55
67 -107 130 -116 141 -9 11 -63 76 -120 144 -57 68 -137 165 -177 215 -95 117
-143 175 -163 195 -8 9 -30 36 -49 61 -19 25 -44 56 -56 70 -13 14 -40 46 -61
71 -21 25 -55 66 -75 90 -40 48 -78 96 -167 209 -75 95 -117 140 -131 140 -6
0 -15 -10 -20 -22z"/>
<path d="M8414 10783 c-23 -35 -40 -62 -54 -88 -6 -11 -19 -33 -30 -50 -11
-16 -31 -52 -45 -80 -14 -27 -35 -63 -45 -80 -11 -16 -24 -40 -30 -53 -6 -15
-10 -337 -10 -925 0 -898 -8 -1225 -35 -1402 -10 -60 -11 -93 -4 -100 11 -11
159 -16 267 -8 73 6 74 6 67 32 -15 62 -36 315 -45 546 -5 138 -10 697 -11
1243 -1 545 -3 992 -4 992 -1 0 -11 -12 -21 -27z"/>
<path d="M6446 10525 c-3 -46 -13 -113 -21 -147 -8 -35 -15 -80 -15 -100 0
-20 -6 -79 -14 -130 -8 -51 -22 -147 -32 -213 -9 -66 -23 -152 -30 -192 -8
-40 -14 -89 -14 -110 0 -21 -6 -74 -14 -118 -9 -54 -16 -210 -21 -475 -6 -396
-26 -783 -45 -895 -15 -91 -13 -142 7 -149 19 -8 602 0 610 8 3 3 -2 36 -10
73 -24 100 -45 344 -57 638 -11 274 -20 391 -38 465 -10 42 -16 81 -58 335 -8
50 -19 117 -25 150 -6 33 -14 80 -18 105 -4 25 -11 51 -15 59 -5 8 -12 41 -16
75 -4 33 -12 81 -18 106 -6 25 -18 80 -26 123 -35 176 -45 224 -56 272 -6 28
-15 71 -20 97 -7 41 -35 108 -44 108 -2 0 -6 -38 -10 -85z"/>
<path d="M2000 9794 c-5 -5 -9 -206 -10 -445 0 -626 -24 -1120 -61 -1289 -17
-73 -21 -72 331 -66 221 4 306 9 309 17 2 7 -3 44 -12 83 -29 131 -38 210 -52
471 -17 311 -19 753 -4 862 10 74 27 122 69 188 11 17 31 54 45 82 15 29 30
55 36 58 5 4 9 17 9 30 l0 24 -326 -2 c-214 -1 -329 -6 -334 -13z"/>
<path d="M2920 9802 c-17 -6 -11 -18 33 -63 45 -47 75 -80 262 -284 65 -71
124 -135 130 -141 5 -6 35 -40 65 -75 46 -54 137 -155 175 -195 81 -88 195
-214 245 -274 219 -258 491 -530 609 -609 63 -41 183 -101 204 -101 7 0 17 -4
23 -10 5 -5 30 -14 54 -19 67 -15 140 -31 188 -41 47 -11 332 -14 381 -4 43 9
40 35 -6 59 -21 11 -42 23 -48 28 -5 4 -53 39 -105 78 -103 76 -250 216 -430
410 -63 68 -164 176 -225 239 -60 63 -121 129 -135 145 -44 53 -101 118 -180
205 -133 147 -284 314 -305 339 -11 13 -25 29 -31 35 -5 6 -57 63 -114 126
-57 63 -111 123 -120 132 -14 15 -50 17 -338 20 -177 2 -327 2 -332 0z"/>
<path d="M13095 9800 c-137 -3 -250 -7 -250 -8 0 -1 1 -156 3 -344 5 -420 -14
-1072 -34 -1182 -8 -43 -14 -100 -14 -126 0 -26 -6 -65 -14 -87 -8 -22 -11
-45 -7 -51 7 -12 2689 -11 2709 2 7 4 12 19 12 34 0 15 7 52 15 82 8 30 15 74
15 96 0 23 7 61 15 84 23 65 21 73 -17 65 -18 -4 -46 -13 -62 -21 -16 -8 -37
-14 -46 -14 -10 0 -34 -7 -53 -15 -20 -8 -53 -15 -74 -15 -21 0 -63 -7 -93
-15 -30 -8 -70 -15 -89 -15 -19 0 -73 -7 -120 -15 -176 -30 -557 -45 -1093
-45 -398 0 -519 3 -524 12 -5 7 -10 364 -11 793 -2 429 -7 782 -11 785 -4 3
-119 3 -257 0z"/>
<path d="M12425 6879 c-22 -5 -56 -11 -75 -15 -45 -7 -157 -49 -200 -75 -8 -5
-24 -13 -35 -18 -45 -21 -215 -201 -215 -228 0 -5 -5 -14 -12 -21 -21 -21 -47
-145 -48 -227 0 -80 24 -183 48 -207 7 -7 12 -16 12 -21 0 -23 99 -133 155
-173 40 -28 158 -84 176 -84 8 0 19 -4 25 -8 17 -16 209 -72 329 -97 44 -9 94
-21 110 -27 17 -5 46 -13 65 -17 19 -4 45 -13 57 -19 12 -7 30 -12 40 -12 38
0 149 -67 208 -125 88 -88 109 -162 79 -276 -14 -53 -28 -83 -57 -115 -57 -64
-177 -144 -218 -144 -9 0 -33 -7 -54 -16 -51 -21 -344 -15 -423 9 -190 57
-326 191 -344 337 -3 25 -3 25 -108 24 -58 0 -118 -4 -133 -8 -24 -6 -27 -11
-27 -52 0 -50 29 -145 60 -196 11 -18 24 -42 29 -53 13 -28 91 -103 166 -161
46 -34 146 -84 220 -108 138 -45 420 -58 590 -27 201 36 298 83 415 201 124
124 170 231 170 393 0 94 -18 180 -52 254 -23 50 -147 169 -210 202 -24 12
-50 26 -58 30 -16 9 -74 35 -125 56 -60 24 -130 45 -153 45 -13 0 -31 4 -41
10 -10 5 -43 14 -72 19 -269 50 -489 143 -559 236 -52 69 -64 180 -29 261 41
93 130 162 269 209 78 27 340 28 420 1 75 -24 117 -46 154 -78 17 -16 34 -28
37 -28 12 0 99 -122 114 -160 19 -45 18 -45 143 -48 113 -2 121 -1 127 17 7
24 -21 144 -44 186 -54 101 -163 207 -271 264 -87 47 -132 64 -215 81 -74 15
-386 22 -440 9z"/>
<path d="M14595 6874 c-243 -47 -432 -179 -513 -359 -23 -49 -42 -155 -42
-227 0 -113 36 -214 112 -310 35 -45 142 -117 218 -148 30 -12 70 -28 88 -36
18 -8 39 -14 46 -14 8 0 27 -7 42 -15 16 -8 39 -15 52 -15 13 0 31 -4 41 -9 9
-5 71 -21 136 -35 420 -90 575 -202 575 -413 0 -105 -37 -169 -139 -246 -115
-86 -177 -102 -391 -102 -194 0 -244 11 -367 79 -37 21 -114 90 -124 111 -6
11 -23 45 -39 75 -16 30 -30 70 -30 89 l0 34 -127 -8 c-134 -7 -163 -15 -163
-43 0 -20 35 -133 49 -159 5 -10 12 -25 15 -33 17 -46 110 -164 159 -203 110
-88 218 -134 403 -173 65 -13 115 -16 250 -12 164 5 208 11 324 46 187 55 350
195 416 357 25 60 29 86 32 187 4 135 -16 221 -70 302 -96 147 -345 276 -643
337 -22 4 -60 13 -85 19 -25 7 -72 19 -105 27 -128 33 -255 84 -300 122 -36
29 -81 95 -99 144 -17 45 -17 52 -2 114 23 90 47 134 101 181 105 93 248 129
462 118 111 -6 133 -12 231 -60 81 -40 91 -47 134 -99 61 -74 67 -83 84 -142
l9 -30 125 0 125 0 3 33 c3 32 -25 129 -51 175 -6 12 -31 47 -54 78 -96 129
-204 196 -408 256 -76 22 -378 26 -480 7z"/>
<path d="M4132 6862 l-122 -3 2 -1062 3 -1062 129 -3 c73 -1 132 1 135 7 11
17 -3 2124 -14 2125 -5 1 -65 0 -133 -2z"/>
<path d="M1963 6848 c-4 -7 -9 -480 -11 -1052 -2 -788 0 -1041 9 -1052 9 -12
39 -14 143 -12 l131 3 5 475 5 475 503 3 c276 1 502 3 502 5 7 38 8 196 2 205
-7 10 -116 13 -508 15 l-499 2 -3 353 c-2 278 0 352 10 353 7 1 256 2 553 3
l540 1 3 118 3 117 -690 0 c-541 0 -692 -3 -698 -12z"/>
<path d="M4884 6845 c-3 -8 -4 -58 -2 -110 2 -71 7 -98 18 -105 9 -6 133 -9
315 -7 165 2 324 1 353 -2 l54 -6 1 -940 2 -940 135 0 135 0 3 941 2 942 23 5
c17 4 281 7 690 7 4 0 6 51 5 113 l-3 112 -863 3 c-754 2 -863 0 -868 -13z"/>
<path d="M7246 6851 c-8 -12 -8 -2099 -1 -2111 7 -12 244 -13 261 -2 9 5 11
227 10 832 -1 634 2 825 11 825 7 0 37 -34 67 -75 31 -41 60 -80 66 -87 5 -7
37 -51 70 -98 33 -48 100 -139 149 -203 48 -64 93 -127 100 -139 6 -12 34 -50
63 -84 28 -34 65 -83 82 -109 29 -44 137 -191 460 -625 73 -99 148 -195 165
-213 l30 -33 128 3 128 3 3 1063 2 1063 -132 -3 -133 -3 -3 -832 c-1 -458 -5
-833 -8 -833 -12 0 -44 21 -44 30 0 18 -131 204 -345 490 -122 163 -227 304
-233 315 -8 16 -464 628 -564 759 -58 75 -61 76 -200 76 -70 0 -129 -4 -132
-9z"/>
<path d="M9787 6853 c-4 -3 -7 -480 -7 -1059 l0 -1054 23 -5 c12 -3 335 -4
717 -3 l695 3 3 104 c2 66 -1 108 -8 115 -8 8 -175 11 -543 12 -293 1 -546 2
-563 3 l-32 1 -6 323 c-3 177 -3 340 2 362 l7 40 515 5 515 5 0 110 0 110
-517 3 -518 2 -2 303 c-3 361 -3 376 4 382 3 3 252 6 554 8 302 1 555 6 562
11 16 10 15 194 0 214 -8 9 -161 12 -703 12 -380 0 -695 -3 -698 -7z"/>
</g>
</svg>
