<svg version="1.0" xmlns="http://www.w3.org/2000/svg" width="692" height="297.333" viewBox="0 0 519 223">
  <g fill="#fdfcfc">
    <path d="M443.5 20.4c-7.15 3.25-33.4 20.8-31.8 21.35 1.3.4 24.7-6.45 30.3-8.85 8.25-3.65 11.2-8.55 7.45-12.35-1.9-1.85-2.1-1.85-5.95-.15M254.1 42c-8.6 15.4-7.25 14.3-17.85 14.1l-8.5-.2.6 3.85c.35 2.15.9 8.45 1.3 14l.65 10.1-10 16.85c-17.4 29.2-25.25 42.65-25.65 43.75-.8 2.25-1.5-.95-7.05-31.65-6.05-33.5-6.25-37.25-3-53.55.65-3.25.65-3.25-3.5-3.25-4.65 0-4.4.4-6.25-10-1.15-6.45-1.65-7.55-3.55-7.8-3.4-.5-2.8-3.95-15.4 86.3l-1.25 9-3.4-11C141 89.7 141.1 89.75 133.95 106l-4.6 10.5-58.15.5c-59.35.5-61.05.65-59.6 4.35.55 1.55 5.3 1.65 61.25 1.4l60.65-.25 2.95-7.25c1.6-4 3.2-7.25 3.5-7.25s3 8 5.95 17.75c7.05 23.05 7.55 24.25 10 24.25 2.85 0 2.65.65 6.05-25.05 3.45-26 7.8-56.1 8.7-59.95l.6-2.5.9 2.5c.45 1.4 4.45 22.3 8.85 46.45 4.8 26.7 8.45 44.2 9.2 44.7 3.25 2.05 4.25 1.1 10.8-10.5 2.55-4.5 12.5-21.65 22.1-38.15 17.8-30.5 22.45-38.6 33.5-57.8l6.25-10.8 5.4 9.3c2.95 5.1 6.6 11.4 8.1 14 4.3 7.55 6 7.45 10.15-.75 3.35-6.65 2.95-6.7 9 .95 24.25 30.65 39.2 44.35 57.85 53.15 14.45 6.8 14.55 6.85 62.9 7.2l43.75.35v-2.55c0-3.55.55-3.5-45.5-3.85-45.4-.35-46.4-.45-60-7.2-14.75-7.3-27.85-19.1-48.15-43.5-17.2-20.7-17.05-20.6-21.8-13.05-3.55 5.55-3.3 5.75-12-9.95-9.75-17.5-9.2-17.45-18.45-1"/>
    <path d="M20.45 57.7c.9 2.35 2.5 29.35 2.5 42.55L23 111h16.5l-.35-8.85c-.35-9.7 1.35-41.75 2.4-44.45.6-1.55-.4-1.7-10.55-1.7s-11.15.15-10.55 1.7m63.8 26.25-27.2 27.7 4.15.2c5.9.2 6.35-.2 35.65-29.5L123.2 56l-5.85.1-5.85.1zm245.2-27c.35.5 1.1 7.4 1.65 15.25 1.05 14.05 1.1 14.35 4.15 17.55 4.3 4.45 4.45 4.1 5.05-16l.55-17.75h-6c-3.5 0-5.75.4-5.4.95m53.05 1.3c.4 1.25.95 13.6 1.25 27.5l.45 25.25h17.75l.3-23.75.25-23.75 14.5-.3c16.8-.35 40.95 1.2 49.3 3.2l5.8 1.35-.3-5.6-.3-5.65-44.85-.25-44.9-.25zM248.1 76.4c-2.25 4.15-4.1 7.9-4.1 8.4 0 .9 3.65 5.35 33.45 40.7 9.75 11.55 25.65 30.45 35.3 42l17.6 21 4.85.3 4.8.3v-72.95l-3.75-3.1-3.75-3.1-.5 26.75-.5 26.7-5-6.1c-2.75-3.35-14.45-17.45-26-31.35a7719 7719 0 0 1-33.8-40.85c-15.3-18.7-13.55-17.85-18.6-8.7m-14.25 24.85-3.6 6.25-.55 38.5c-.3 21.15-.85 39.5-1.25 40.75-.65 2.15-.45 2.25 5.25 2.25h5.95l-.8-6.25c-.4-3.45-.8-24.6-.9-47S237.7 95 237.6 95s-1.8 2.8-3.75 6.25m-65.1 22.05c-1.55 12.2-2.95 28.85-3.25 39.2-.3 9.9-.8 19.9-1.15 22.25l-.6 4.25h10.75c10.65 0 10.75 0 10.1-2.25-.35-1.25-1.1-9.45-1.6-18.25-.55-8.8-1.65-19.85-2.5-24.5-2.8-15.75-7.7-39.5-8.35-40.7-.4-.7-1.9 8.3-3.4 20M23 143.25c-.05 15.3-1.55 41.4-2.6 44.1-.55 1.45.65 1.65 10.6 1.65 11.15 0 11.25 0 10.6-2.25-3.5-12.55-3-45.65.75-52.1 1.45-2.5 2.65-4.75 2.65-5.1 0-.3-4.95-.55-11-.55H23zm44.65 2c8.1 8.95 18.55 20.45 23.2 25.55 12.35 13.6 18.95 17.5 32.15 18.85 10.9 1.15 12.1 0 5.3-5-6.45-4.8-15.6-14.25-37.75-38.95l-15-16.7h-22.7zm317.05-5.5c.45 11.45-1.15 44.6-2.25 47.5-.6 1.65 2.05 1.75 44.85 1.75h45.5l.6-3.75c.4-2.05.9-5.05 1.25-6.6.5-2.55.35-2.75-1.45-1.75-5 2.65-20.35 4.3-45.45 4.85l-25.75.5V129h-17.7z"/>
  </g>
</svg>
